<svg xmlns="http://www.w3.org/2000/svg" version="1.1" xmlns:xlink="http://www.w3.org/1999/xlink" xmlns:svgjs="http://svgjs.dev/svgjs" width="100%" height="100%" viewBox="0 0 1000 600"><rect width="1000" height="600" x="0" y="0" fill="#f9d342"/><g><rect width="333.3333333333333" height="333.3333333333333" rx="13.333333333333334" ry="13.333333333333334" y="113.33714616893249" fill="#292826" transform="matrix(1.3718933533847735,0,0,1.3718933533847735,0,-84.13539465002678)" x="91.11492919921875"/><path d="M125.17720233365799 223.22583529856442Q121.36139546743216 223.22583529856442 118.79031704419978 220.5731353380866Q116.2192386209674 217.92043537760873 116.2192386209674 214.10462851138288L116.2192386209674 214.10462851138288Q116.2192386209674 210.28882164515704 118.79031704419978 207.6361216846792Q121.36139546743216 205.00382710851272 125.17720233365799 205.00382710851272L125.17720233365799 205.00382710851272Q128.99300919988383 205.00382710851272 131.56408762311622 207.6361216846792Q134.1351660463486 210.28882164515704 134.1351660463486 214.10462851138288L134.1351660463486 214.10462851138288Q134.1351660463486 217.92043537760873 131.56408762311622 220.5731353380866Q128.99300919988383 223.22583529856442 125.17720233365799 223.22583529856442L125.17720233365799 223.22583529856442ZM131.78854685054125 236.28528125783998L131.78854685054125 334.29234210534094Q131.78854685054125 345.00516886880916 126.36071462371734 350.00448802509436Q120.91247701258206 355.00380718137956 110.48532562947297 355.00380718137956L110.48532562947297 355.00380718137956L102.71087420684172 355.00380718137956L102.71087420684172 343.6992242728817L108.28154412384521 343.6992242728817Q113.87261942516007 343.6992242728817 116.13761708372192 341.49544276725385Q118.42302012659516 339.29166126162613 118.42302012659516 333.98626134067047L118.42302012659516 333.98626134067047L118.42302012659516 236.28528125783998L131.78854685054125 236.28528125783998ZM149.4187988955633 276.2594291238101Q149.4187988955633 263.9141716154324 154.41811805184847 254.5889109851372Q159.41743720813366 245.26365035484196 168.1509416933992 240.12149350837723Q176.90485156297612 234.97933666191244 187.61767832644438 234.97933666191244L187.61767832644438 234.97933666191244Q198.20807278404442 234.97933666191244 205.98252420667566 239.52973736334752Q213.77738101361825 244.0801380647826 217.5931878798441 250.97715796202505L217.5931878798441 250.97715796202505L217.5931878798441 236.28528125783998L231.10155229396977 236.28528125783998L231.10155229396977 316.80492775049845L217.5931878798441 316.80492775049845L217.5931878798441 301.8273756659543Q213.63454332343872 308.8672332533763 205.7580649792506 313.4992554920568Q197.9019920193739 318.13127773073745 187.4748406362648 318.13127773073745L187.4748406362648 318.13127773073745Q176.74160848848518 318.13127773073745 168.0897255404651 312.8462831940931Q159.41743720813366 307.5408832731374 154.41811805184847 297.99116341541713Q149.4187988955633 288.44144355769686 149.4187988955633 276.2594291238101L149.4187988955633 276.2594291238101ZM217.5931878798441 276.4022668139897Q217.5931878798441 267.3014654111195 213.92021870379784 260.5268778197453Q210.2472495277516 253.77269561268247 204.00320192847295 250.18134797388166Q197.7591543291943 246.5695949507695 190.2703782869222 246.5695949507695L190.2703782869222 246.5695949507695Q182.78160224465012 246.5695949507695 176.59877079830562 250.09972643663622Q170.43634473627242 253.62985792250288 166.76337556022617 260.38404012956573Q163.09040638417991 267.1382223366286 163.09040638417991 276.2594291238101L163.09040638417991 276.2594291238101Q163.09040638417991 285.50306821685984 166.76337556022617 292.33887196116814Q170.43634473627242 299.1746757054765 176.59877079830562 302.7660233442773Q182.78160224465012 306.3777763673894 190.2703782869222 306.3777763673894L190.2703782869222 306.3777763673894Q197.7591543291943 306.3777763673894 204.00320192847295 302.7660233442773Q210.2472495277516 299.1746757054765 213.92021870379784 292.33887196116814Q217.5931878798441 285.50306821685984 217.5931878798441 276.4022668139897L217.5931878798441 276.4022668139897ZM258.5876049613826 236.28528125783998L283.70663304867674 304.4596702421208L308.6828234457913 236.28528125783998L322.9257816951262 236.28528125783998L291.3382467811284 316.80492775049845L275.7689385515546 316.80492775049845L244.18140363755674 236.28528125783998L258.5876049613826 236.28528125783998ZM331.16955695691894 276.2594291238101Q331.16955695691894 263.9141716154324 336.1484707288928 254.5889109851372Q341.147789885178 245.26365035484196 349.9016997547549 240.12149350837723Q358.63520424002036 234.97933666191244 369.3684363878 234.97933666191244L369.3684363878 234.97933666191244Q379.9384254610886 234.97933666191244 387.7332822680313 239.52973736334752Q395.50773369066246 244.0801380647826 399.32354055688836 250.97715796202505L399.32354055688836 250.97715796202505L399.32354055688836 236.28528125783998L412.85231035532536 236.28528125783998L412.85231035532536 316.80492775049845L399.32354055688836 316.80492775049845L399.32354055688836 301.8273756659543Q395.3648960004829 308.8672332533763 387.5088230406062 313.4992554920568Q379.65275008072945 318.13127773073745 369.205193313309 318.13127773073745L369.205193313309 318.13127773073745Q358.49236654984077 318.13127773073745 349.8200782175094 312.8462831940931Q341.147789885178 307.5408832731374 336.1484707288928 297.99116341541713Q331.16955695691894 288.44144355769686 331.16955695691894 276.2594291238101L331.16955695691894 276.2594291238101ZM399.32354055688836 276.4022668139897Q399.32354055688836 267.3014654111195 395.65057138084217 260.5268778197453Q391.97760220479586 253.77269561268247 385.73355460551716 250.18134797388166Q379.48950700623857 246.5695949507695 372.0007309639665 246.5695949507695L372.0007309639665 246.5695949507695Q364.5119549216944 246.5695949507695 358.3495288596612 250.09972643663622Q352.1666974133167 253.62985792250288 348.4937282372704 260.38404012956573Q344.8207590612242 267.1382223366286 344.8207590612242 276.2594291238101L344.8207590612242 276.2594291238101Q344.8207590612242 285.50306821685984 348.4937282372704 292.33887196116814Q352.1666974133167 299.1746757054765 358.3495288596612 302.7660233442773Q364.5119549216944 306.3777763673894 372.0007309639665 306.3777763673894L372.0007309639665 306.3777763673894Q379.48950700623857 306.3777763673894 385.73355460551716 302.7660233442773Q391.97760220479586 299.1746757054765 395.65057138084217 292.33887196116814Q399.32354055688836 285.50306821685984 399.32354055688836 276.4022668139897L399.32354055688836 276.4022668139897Z " fill="#f9d342" transform="matrix(1.3718933533847735,0,0,1.3718933533847735,0,-84.13539465002678)"/><path d="M516.8824000629938 317.6823592758873Q513.066593196768 317.6823592758873 510.41389323629016 315.0500646997208Q507.7815986601237 312.397364739243 507.7815986601237 308.5815578730172L507.7815986601237 308.5815578730172Q507.7815986601237 304.76575100679133 510.41389323629016 302.1130510463135Q513.066593196768 299.46035108583567 516.8824000629938 299.46035108583567L516.8824000629938 299.46035108583567Q520.5553692390401 299.46035108583567 523.1264476622725 302.1130510463135Q525.6975260855049 304.76575100679133 525.6975260855049 308.5815578730172L525.6975260855049 308.5815578730172Q525.6975260855049 312.397364739243 523.1264476622725 315.0500646997208Q520.5553692390401 317.6823592758873 516.8824000629938 317.6823592758873L516.8824000629938 317.6823592758873ZM550.6737164826194 223.22583529856442Q546.8579096163935 223.22583529856442 544.2868311931611 220.5731353380866Q541.7157527699288 217.92043537760873 541.7157527699288 214.10462851138288L541.7157527699288 214.10462851138288Q541.7157527699288 210.28882164515704 544.2868311931611 207.6361216846792Q546.8579096163935 205.00382710851272 550.6737164826194 205.00382710851272L550.6737164826194 205.00382710851272Q554.4895233488453 205.00382710851272 557.0606017720777 207.6361216846792Q559.63168019531 210.28882164515704 559.63168019531 214.10462851138288L559.63168019531 214.10462851138288Q559.63168019531 217.92043537760873 557.0606017720777 220.5731353380866Q554.4895233488453 223.22583529856442 550.6737164826194 223.22583529856442L550.6737164826194 223.22583529856442ZM557.2850609995027 236.28528125783998L557.2850609995027 334.29234210534094Q557.2850609995027 345.00516886880916 551.8572287726788 350.00448802509436Q546.4089911615434 355.00380718137956 535.9818397784344 355.00380718137956L535.9818397784344 355.00380718137956L528.2073883558031 355.00380718137956L528.2073883558031 343.6992242728817L533.7780582728067 343.6992242728817Q539.3691335741214 343.6992242728817 541.6341312326833 341.49544276725385Q543.9195342755565 339.29166126162613 543.9195342755565 333.98626134067047L543.9195342755565 333.98626134067047L543.9195342755565 236.28528125783998L557.2850609995027 236.28528125783998ZM608.4209540837911 318.13127773073745Q599.15690960643 318.13127773073745 591.8109712543376 314.9684431624754Q584.465032902245 311.80560859421337 580.200307581169 306.1533171399644Q575.9559876444044 300.5010256857154 575.5070691895544 293.1550873336229L575.5070691895544 293.1550873336229L589.3215143683506 293.1550873336229Q589.9132705133802 299.1746757054765 594.9738058225996 302.99048257170233Q600.0343411318188 306.80628943792817 608.2781163936115 306.80628943792817L608.2781163936115 306.80628943792817Q615.9097301260632 306.80628943792817 620.3172931373188 303.43940102655245Q624.7248561485742 300.0521072308653 624.7248561485742 294.90995038440053L624.7248561485742 294.90995038440053Q624.7248561485742 289.6249558477562 620.0316177569596 287.0538774245238Q615.3179739810336 284.4827990012914 605.4825787429542 281.99334211530453L605.4825787429542 281.99334211530453Q596.5246150302635 279.6263175351859 590.8519181917031 277.2184821864444Q585.1996267374542 274.7902414533916 581.1593606438033 270.01538152453145Q577.1190945501525 265.24052159567134 577.1190945501525 257.4456647887287L577.1190945501525 257.4456647887287Q577.1190945501525 251.28323872669557 580.7920637261988 246.1410818802308Q584.465032902245 240.99892503376606 591.2192151093078 237.97892815568355Q597.9938027006821 234.97933666191244 606.645685648702 234.97933666191244L606.645685648702 234.97933666191244Q620.0316177569596 234.97933666191244 628.2549876344409 241.7335188689753Q636.4783575119222 248.48770107603815 637.0701136569519 260.24120243938614L637.0701136569519 260.24120243938614L623.7045869330059 260.24120243938614Q623.2556684781557 253.91553330286206 618.6236462394752 250.09972643663622Q613.9916240007947 246.28391957041038 606.2171725781634 246.28391957041038L606.2171725781634 246.28391957041038Q599.0140719162505 246.28391957041038 594.7493465951745 249.36513260142698Q590.4846212740986 252.44634563244352 590.4846212740986 257.4456647887287L590.4846212740986 257.4456647887287Q590.4846212740986 261.4247147294455 593.055699697331 263.9957931526779Q595.6267781205634 266.5668715759103 599.5242065240346 268.09727539926286Q603.4216349275059 269.64808460692683 610.3186548247484 271.5457853478841L610.3186548247484 271.5457853478841Q618.9909431570798 273.9128099280028 624.4391807682151 276.17780758656465Q629.867012995039 278.46321062943787 633.7644413985103 283.01361133087295Q637.6618698019817 287.564012032308 637.8047074921612 294.90995038440053L637.8047074921612 294.90995038440053Q637.8047074921612 301.5212949012838 634.1317383161149 306.80628943792817Q630.4587691400686 312.11168935888384 623.76580308594 315.111280852655Q617.0932424161226 318.13127773073745 608.4209540837911 318.13127773073745L608.4209540837911 318.13127773073745Z " fill="#90" transform="matrix(1.3718933533847735,0,0,1.3718933533847735,0,-84.13539465002678)"/></g></svg>